{
 "accessors": [
  {
   "componentType": 5126,
   "type": "VEC3",
   "count": 9900,
   "max": [
    2.9913549423217773,
    -0.6196540594100952,
    -0.31163400411605835
   ],
   "min": [
    -3.011841297149658,
    -13.450760841369629,
    -2.78952693939209
   ],
   "bufferView": 2
  },
  {
   "componentType": 5126,
   "type": "VEC3",
   "count": 9900,
   "bufferView": 3
  },
  {
   "componentType": 5126,
   "type": "VEC2",
   "count": 9900,
   "bufferView": 4
  },
  {
   "componentType": 5123,
   "type": "SCALAR",
   "count": 9900,
   "bufferView": 5
  },
  {
   "componentType": 5126,
   "type": "VEC3",
   "count": 43908,
   "max": [
    8.957802772521973,
    0.4270782470703125,
    0.39862048625946045
   ],
   "min": [
    -8.598536491394043,
    -6.9784746170043945,
    -0.9085548520088196
   ],
   "bufferView": 6
  },
  {
   "componentType": 5126,
   "type": "VEC3",
   "count": 43908,
   "bufferView": 7
  },
  {
   "componentType": 5126,
   "type": "VEC2",
   "count": 43908,
   "bufferView": 8
  },
  {
   "componentType": 5123,
   "type": "SCALAR",
   "count": 43908,
   "bufferView": 9
  }
 ],
 "asset": {
  "version": "2.0",
  "generator": "clara.io"
 },
 "bufferViews": [
  {
   "buffer": 0,
   "byteOffset": 0,
   "byteLength": 521184
  },
  {
   "buffer": 0,
   "byteOffset": 521184,
   "byteLength": 779551
  },
  {
   "buffer": 0,
   "byteOffset": 1300736,
   "byteLength": 118800,
   "target": 34962,
   "byteStride": 12
  },
  {
   "buffer": 0,
   "byteOffset": 1419536,
   "byteLength": 118800,
   "target": 34962,
   "byteStride": 12
  },
  {
   "buffer": 0,
   "byteOffset": 1538336,
   "byteLength": 79200,
   "target": 34962,
   "byteStride": 8
  },
  {
   "buffer": 0,
   "byteOffset": 1617536,
   "byteLength": 19800,
   "target": 34963
  },
  {
   "buffer": 0,
   "byteOffset": 1637336,
   "byteLength": 526896,
   "target": 34962,
   "byteStride": 12
  },
  {
   "buffer": 0,
   "byteOffset": 2164232,
   "byteLength": 526896,
   "target": 34962,
   "byteStride": 12
  },
  {
   "buffer": 0,
   "byteOffset": 2691128,
   "byteLength": 351264,
   "target": 34962,
   "byteStride": 8
  },
  {
   "buffer": 0,
   "byteOffset": 3042392,
   "byteLength": 87816,
   "target": 34963
  }
 ],
 "buffers": [
  {
   "byteLength": 3130208,
   "uri": "data:application/octet-stream;base64,"
  }
 ],
 "images": [
  {
   "name": "apron color.png",
   "bufferView": 0,
   "mimeType": "image/png"
  },
  {
   "name": "apron normal.png",
   "bufferView": 1,
   "mimeType": "image/png"
  }
 ],
 "materials": [
  {
   "name": "apron_low_feb_body_backup_lambert5SG1",
   "pbrMetallicRoughness": {
    "baseColorFactor": [
     0.8,
     0.8,
     0.8,
     1
    ],
    "baseColorTexture": {
     "index": 0,
     "texCoord": 0
    },
    "roughnessFactor": 0.8069,
    "metallicFactor": 0
   },
   "normalTexture": {
    "index": 1
   }
  },
  {
   "name": "Metal Chrome",
   "pbrMetallicRoughness": {
    "baseColorFactor": [
     0.023529411764705882,
     0.023529411764705882,
     0.023529411764705882,
     1
    ],
    "roughnessFactor": 0.7071,
    "metallicFactor": 0
   }
  }
 ],
 "meshes": [
  {
   "primitives": [
    {
     "indices": 3,
     "material": 0,
     "mode": 4,
     "attributes": {
      "POSITION": 0,
      "NORMAL": 1,
      "TEXCOORD_0": 2
     }
    }
   ]
  },
  {
   "primitives": [
    {
     "indices": 7,
     "material": 1,
     "mode": 4,
     "attributes": {
      "POSITION": 4,
      "NORMAL": 5,
      "TEXCOORD_0": 6
     }
    }
   ]
  }
 ],
 "nodes": [
  {
   "name": "apron",
   "children": [
    1,
    2
   ]
  },
  {
   "name": "apron_myfree3d_com_",
   "translation": [
    0,
    0.1304289996623993,
    0.006219780072569847
   ],
   "scale": [
    0.009999999776482582,
    0.009999999776482582,
    0.009999999776482582
   ],
   "mesh": 0
  },
  {
   "name": "DTEC_Peng",
   "translation": [
    -0.0016551200533285737,
    0.14391900599002838,
    -0.01285959966480732
   ],
   "scale": [
    0.006186559796333313,
    0.006186559796333313,
    0.006186559796333313
   ],
   "mesh": 1
  }
 ],
 "samplers": [
  {
   "magFilter": 9729,
   "minFilter": 9987,
   "wrapS": 10497,
   "wrapT": 10497
  }
 ],
 "scene": 0,
 "scenes": [
  {
   "nodes": [
    0
   ]
  }
 ],
 "textures": [
  {
   "sampler": 0,
   "source": 0
  },
  {
   "sampler": 0,
   "source": 1
  }
 ]
}