{
 "accessors": [
  {
   "componentType": 5126,
   "type": "VEC3",
   "count": 540,
   "max": [
    1.4022002220153809,
    -0.7039752006530762,
    9.380208015441895
   ],
   "min": [
    -3.162177324295044,
    -1.0234060287475586,
    4.815831184387207
   ],
   "bufferView": 0
  },
  {
   "componentType": 5126,
   "type": "VEC3",
   "count": 540,
   "bufferView": 1
  },
  {
   "componentType": 5126,
   "type": "VEC2",
   "count": 540,
   "bufferView": 2
  },
  {
   "componentType": 5123,
   "type": "SCALAR",
   "count": 1500,
   "bufferView": 3
  },
  {
   "componentType": 5123,
   "type": "SCALAR",
   "count": 828,
   "bufferView": 4
  },
  {
   "componentType": 5126,
   "type": "VEC3",
   "count": 540,
   "max": [
    2.282189130783081,
    2.2822108268737793,
    0.08777720481157303
   ],
   "min": [
    -2.2821903228759766,
    -2.282179355621338,
    -0.23165372014045715
   ],
   "bufferView": 5
  },
  {
   "componentType": 5126,
   "type": "VEC3",
   "count": 540,
   "bufferView": 6
  },
  {
   "componentType": 5126,
   "type": "VEC2",
   "count": 540,
   "bufferView": 7
  },
  {
   "componentType": 5123,
   "type": "SCALAR",
   "count": 1500,
   "bufferView": 8
  },
  {
   "componentType": 5123,
   "type": "SCALAR",
   "count": 828,
   "bufferView": 9
  },
  {
   "componentType": 5126,
   "type": "VEC3",
   "count": 5161,
   "max": [
    6.457955360412598,
    1.9537419080734253,
    6.457953929901123
   ],
   "min": [
    -6.457956314086914,
    -1.2116206884384155,
    -13.847667694091797
   ],
   "bufferView": 10
  },
  {
   "componentType": 5126,
   "type": "VEC3",
   "count": 5161,
   "bufferView": 11
  },
  {
   "componentType": 5126,
   "type": "VEC2",
   "count": 5161,
   "bufferView": 12
  },
  {
   "componentType": 5123,
   "type": "SCALAR",
   "count": 11556,
   "bufferView": 13
  },
  {
   "componentType": 5123,
   "type": "SCALAR",
   "count": 4680,
   "bufferView": 14
  },
  {
   "componentType": 5123,
   "type": "SCALAR",
   "count": 4320,
   "bufferView": 15
  },
  {
   "componentType": 5123,
   "type": "SCALAR",
   "count": 4476,
   "bufferView": 16
  }
 ],
 "asset": {
  "version": "2.0",
  "generator": "clara.io"
 },
 "bufferViews": [
  {
   "buffer": 0,
   "byteOffset": 0,
   "byteLength": 6480,
   "target": 34962,
   "byteStride": 12
  },
  {
   "buffer": 0,
   "byteOffset": 6480,
   "byteLength": 6480,
   "target": 34962,
   "byteStride": 12
  },
  {
   "buffer": 0,
   "byteOffset": 12960,
   "byteLength": 4320,
   "target": 34962,
   "byteStride": 8
  },
  {
   "buffer": 0,
   "byteOffset": 17280,
   "byteLength": 3000,
   "target": 34963
  },
  {
   "buffer": 0,
   "byteOffset": 20280,
   "byteLength": 1656,
   "target": 34963
  },
  {
   "buffer": 0,
   "byteOffset": 21936,
   "byteLength": 6480,
   "target": 34962,
   "byteStride": 12
  },
  {
   "buffer": 0,
   "byteOffset": 28416,
   "byteLength": 6480,
   "target": 34962,
   "byteStride": 12
  },
  {
   "buffer": 0,
   "byteOffset": 34896,
   "byteLength": 4320,
   "target": 34962,
   "byteStride": 8
  },
  {
   "buffer": 0,
   "byteOffset": 39216,
   "byteLength": 3000,
   "target": 34963
  },
  {
   "buffer": 0,
   "byteOffset": 42216,
   "byteLength": 1656,
   "target": 34963
  },
  {
   "buffer": 0,
   "byteOffset": 43872,
   "byteLength": 61932,
   "target": 34962,
   "byteStride": 12
  },
  {
   "buffer": 0,
   "byteOffset": 105804,
   "byteLength": 61932,
   "target": 34962,
   "byteStride": 12
  },
  {
   "buffer": 0,
   "byteOffset": 167736,
   "byteLength": 41288,
   "target": 34962,
   "byteStride": 8
  },
  {
   "buffer": 0,
   "byteOffset": 209024,
   "byteLength": 23112,
   "target": 34963
  },
  {
   "buffer": 0,
   "byteOffset": 232136,
   "byteLength": 9360,
   "target": 34963
  },
  {
   "buffer": 0,
   "byteOffset": 241496,
   "byteLength": 8640,
   "target": 34963
  },
  {
   "buffer": 0,
   "byteOffset": 250136,
   "byteLength": 8952,
   "target": 34963
  }
 ],
 "buffers": [
  {
   "byteLength": 259088,
   "uri": "data:application/octet-stream;base64,"
  }
 ],
 "materials": [
  {
   "name": "1EGG",
   "pbrMetallicRoughness": {
    "roughnessFactor": 0.0716,
    "metallicFactor": 0
   }
  },
  {
   "name": "1YOLK",
   "pbrMetallicRoughness": {
    "baseColorFactor": [
     1,
     0.7450980392156863,
     0,
     1
    ],
    "roughnessFactor": 0.1521,
    "metallicFactor": 0
   }
  },
  {
   "name": "CHROME SUNSET",
   "pbrMetallicRoughness": {
    "baseColorFactor": [
     0.792156862745098,
     0.7803921568627451,
     0.7607843137254902,
     1
    ],
    "roughnessFactor": 0.0442,
    "metallicFactor": 0
   }
  },
  {
   "name": "1DMBLACKPAN",
   "pbrMetallicRoughness": {
    "baseColorFactor": [
     0.13725490196078433,
     0.13725490196078433,
     0.13725490196078433,
     1
    ],
    "roughnessFactor": 0.2272,
    "metallicFactor": 0
   }
  },
  {
   "name": "1DMFRYPAN",
   "pbrMetallicRoughness": {
    "baseColorFactor": [
     0.7490196078431373,
     0,
     0,
     1
    ],
    "roughnessFactor": 0.2425,
    "metallicFactor": 0
   }
  },
  {
   "name": "1DMHANDLE",
   "pbrMetallicRoughness": {
    "baseColorFactor": [
     0.0392156862745098,
     0.0392156862745098,
     0.0392156862745098,
     1
    ],
    "roughnessFactor": 0.0473,
    "metallicFactor": 0
   }
  }
 ],
 "meshes": [
  {
   "primitives": [
    {
     "indices": 3,
     "material": 0,
     "mode": 4,
     "attributes": {
      "POSITION": 0,
      "NORMAL": 1,
      "TEXCOORD_0": 2
     }
    },
    {
     "indices": 4,
     "material": 1,
     "mode": 4,
     "attributes": {
      "POSITION": 0,
      "NORMAL": 1,
      "TEXCOORD_0": 2
     }
    }
   ]
  },
  {
   "primitives": [
    {
     "indices": 8,
     "material": 0,
     "mode": 4,
     "attributes": {
      "POSITION": 5,
      "NORMAL": 6,
      "TEXCOORD_0": 7
     }
    },
    {
     "indices": 9,
     "material": 1,
     "mode": 4,
     "attributes": {
      "POSITION": 5,
      "NORMAL": 6,
      "TEXCOORD_0": 7
     }
    }
   ]
  },
  {
   "primitives": [
    {
     "indices": 13,
     "material": 2,
     "mode": 4,
     "attributes": {
      "POSITION": 10,
      "NORMAL": 11,
      "TEXCOORD_0": 12
     }
    },
    {
     "indices": 14,
     "material": 3,
     "mode": 4,
     "attributes": {
      "POSITION": 10,
      "NORMAL": 11,
      "TEXCOORD_0": 12
     }
    },
    {
     "indices": 15,
     "material": 4,
     "mode": 4,
     "attributes": {
      "POSITION": 10,
      "NORMAL": 11,
      "TEXCOORD_0": 12
     }
    },
    {
     "indices": 16,
     "material": 5,
     "mode": 4,
     "attributes": {
      "POSITION": 10,
      "NORMAL": 11,
      "TEXCOORD_0": 12
     }
    }
   ]
  }
 ],
 "nodes": [
  {
   "name": "Fbx_Root",
   "scale": [
    0.02539999969303608,
    0.02539999969303608,
    0.02539999969303608
   ],
   "children": [
    1
   ]
  },
  {
   "name": "$$$DUMMY.tigan",
   "translation": [
    -1.7720699929668626e-7,
    0,
    -1.1862699977882585e-7
   ],
   "rotation": [
    0,
    0.25574611917301227,
    0,
    0.9667439764174023
   ],
   "scale": [
    0.1000000009904284,
    0.10000000149011612,
    0.1000000009904284
   ],
   "children": [
    2,
    3,
    4
   ]
  },
  {
   "name": "EGG2",
   "translation": [
    -5.260009765625,
    1.2455500364303589,
    2.6193299293518066
   ],
   "rotation": [
    0,
    0.57357643143127,
    0,
    0.8191520475465248
   ],
   "mesh": 0
  },
  {
   "name": "EGG",
   "translation": [
    -0.8799890279769897,
    0.30991700291633606,
    1.820099949836731
   ],
   "rotation": [
    0.7071067811865475,
    0,
    0,
    0.7071067811865476
   ],
   "mesh": 1
  },
  {
   "name": "FRYPAN",
   "translation": [
    9.536739753457368e-7,
    1.2455500364303589,
    3.6948599815368652
   ],
   "mesh": 2
  }
 ],
 "scene": 0,
 "scenes": [
  {
   "nodes": [
    0
   ]
  }
 ]
}