{
 "accessors": [
  {
   "componentType": 5126,
   "type": "VEC3",
   "count": 3756,
   "max": [
    61.19905090332031,
    2.2966299057006836,
    1.3504515886306763
   ],
   "min": [
    -61.19905090332031,
    0,
    -12.389045715332031
   ],
   "bufferView": 0
  },
  {
   "componentType": 5126,
   "type": "VEC3",
   "count": 3756,
   "bufferView": 1
  },
  {
   "componentType": 5126,
   "type": "VEC2",
   "count": 3756,
   "bufferView": 2
  },
  {
   "componentType": 5123,
   "type": "SCALAR",
   "count": 14007,
   "bufferView": 3
  },
  {
   "componentType": 5126,
   "type": "VEC3",
   "count": 406,
   "max": [
    5.004374027252197,
    14.072629928588867,
    5.081023216247559
   ],
   "min": [
    -5.004374980926514,
    -11.675415992736816,
    -4.927725791931152
   ],
   "bufferView": 4
  },
  {
   "componentType": 5126,
   "type": "VEC3",
   "count": 406,
   "bufferView": 5
  },
  {
   "componentType": 5126,
   "type": "VEC2",
   "count": 406,
   "bufferView": 6
  },
  {
   "componentType": 5123,
   "type": "SCALAR",
   "count": 1500,
   "bufferView": 7
  }
 ],
 "asset": {
  "version": "2.0",
  "generator": "clara.io"
 },
 "bufferViews": [
  {
   "buffer": 0,
   "byteOffset": 0,
   "byteLength": 45072,
   "target": 34962,
   "byteStride": 12
  },
  {
   "buffer": 0,
   "byteOffset": 45072,
   "byteLength": 45072,
   "target": 34962,
   "byteStride": 12
  },
  {
   "buffer": 0,
   "byteOffset": 90144,
   "byteLength": 30048,
   "target": 34962,
   "byteStride": 8
  },
  {
   "buffer": 0,
   "byteOffset": 120192,
   "byteLength": 28014,
   "target": 34963
  },
  {
   "buffer": 0,
   "byteOffset": 148208,
   "byteLength": 4872,
   "target": 34962,
   "byteStride": 12
  },
  {
   "buffer": 0,
   "byteOffset": 153080,
   "byteLength": 4872,
   "target": 34962,
   "byteStride": 12
  },
  {
   "buffer": 0,
   "byteOffset": 157952,
   "byteLength": 3248,
   "target": 34962,
   "byteStride": 8
  },
  {
   "buffer": 0,
   "byteOffset": 161200,
   "byteLength": 3000,
   "target": 34963
  }
 ],
 "buffers": [
  {
   "byteLength": 164200,
   "uri": "data:application/octet-stream;base64,"
  }
 ],
 "materials": [
  {
   "name": "Text001Mat",
   "pbrMetallicRoughness": {
    "baseColorFactor": [
     0.49019607843137253,
     0.7019607843137254,
     0.2549019607843137,
     1
    ],
    "roughnessFactor": 0.3015,
    "metallicFactor": 0
   }
  },
  {
   "name": "Cone001Mat",
   "pbrMetallicRoughness": {
    "baseColorFactor": [
     0.49019607843137253,
     0.7019607843137254,
     0.2549019607843137,
     1
    ],
    "roughnessFactor": 0.3015,
    "metallicFactor": 0
   }
  }
 ],
 "meshes": [
  {
   "primitives": [
    {
     "indices": 3,
     "material": 0,
     "mode": 4,
     "attributes": {
      "POSITION": 0,
      "NORMAL": 1,
      "TEXCOORD_0": 2
     }
    }
   ]
  },
  {
   "primitives": [
    {
     "indices": 7,
     "material": 1,
     "mode": 4,
     "attributes": {
      "POSITION": 4,
      "NORMAL": 5,
      "TEXCOORD_0": 6
     }
    }
   ]
  }
 ],
 "nodes": [
  {
   "name": "Fbx_Root",
   "scale": [
    0.02539999969303608,
    0.02539999969303608,
    0.02539999969303608
   ],
   "children": [
    1,
    2
   ]
  },
  {
   "name": "Text001",
   "translation": [
    -2.395210027694702,
    0,
    0.3991999924182892
   ],
   "mesh": 0
  },
  {
   "name": "Cone001",
   "translation": [
    3.242110013961792,
    0,
    14.907400131225586
   ],
   "rotation": [
    0,
    0,
    -0.7071067811865475,
    0.7071067811865476
   ],
   "mesh": 1
  }
 ],
 "scene": 0,
 "scenes": [
  {
   "nodes": [
    0
   ]
  }
 ]
}