{
 "accessors": [
  {
   "componentType": 5126,
   "type": "VEC3",
   "count": 6927,
   "max": [
    4.070296287536621,
    31.845762252807617,
    12.11540412902832
   ],
   "min": [
    -4.070296287536621,
    -4.070296287536621,
    -34.1926155090332
   ],
   "bufferView": 0
  },
  {
   "componentType": 5126,
   "type": "VEC3",
   "count": 6927,
   "bufferView": 1
  },
  {
   "componentType": 5126,
   "type": "VEC2",
   "count": 6927,
   "bufferView": 2
  },
  {
   "componentType": 5123,
   "type": "SCALAR",
   "count": 6927,
   "bufferView": 3
  }
 ],
 "asset": {
  "version": "2.0",
  "generator": "clara.io"
 },
 "bufferViews": [
  {
   "buffer": 0,
   "byteOffset": 0,
   "byteLength": 83124,
   "target": 34962,
   "byteStride": 12
  },
  {
   "buffer": 0,
   "byteOffset": 83124,
   "byteLength": 83124,
   "target": 34962,
   "byteStride": 12
  },
  {
   "buffer": 0,
   "byteOffset": 166248,
   "byteLength": 55416,
   "target": 34962,
   "byteStride": 8
  },
  {
   "buffer": 0,
   "byteOffset": 221664,
   "byteLength": 13854,
   "target": 34963
  }
 ],
 "buffers": [
  {
   "byteLength": 235520,
   "uri": "data:application/octet-stream;base64,"
  }
 ],
 "materials": [
  {
   "name": "Default-Cone001",
   "pbrMetallicRoughness": {
    "baseColorFactor": [
     0.49019607843137253,
     0.7019607843137254,
     0.2549019607843137,
     1
    ]
   }
  }
 ],
 "meshes": [
  {
   "primitives": [
    {
     "indices": 3,
     "material": 0,
     "mode": 4,
     "attributes": {
      "POSITION": 0,
      "NORMAL": 1,
      "TEXCOORD_0": 2
     }
    }
   ]
  }
 ],
 "nodes": [
  {
   "name": "recipemovetext",
   "children": [
    1
   ]
  },
  {
   "name": "Cone001",
   "translation": [
    -0.00034891298855654895,
    0.3961009979248047,
    -0.06138069927692413
   ],
   "rotation": [
    0.1913612861550199,
    -0.6807208565860833,
    0.19136122664446445,
    0.6807208398567393
   ],
   "scale": [
    0.05022019892931003,
    0.05022019667467037,
    0.05022019667467028
   ],
   "mesh": 0
  }
 ],
 "scene": 0,
 "scenes": [
  {
   "nodes": [
    0
   ]
  }
 ]
}